<!DOCTYPE svg>
<svg xmlns="http://www.w3.org/2000/svg" width="96" height="96" viewBox="0 0 96 96" role="img" aria-label="Left-facing hand holding a dollar coin on mint background">
  <rect width="96" height="96" rx="18" fill="#c9f4dd"/>
  <circle cx="34" cy="28" r="20" fill="#0a60c5" fill-opacity="0.12"/>
  <circle cx="34" cy="28" r="18" fill="#0a60c5"/>
  <path fill="#c9f4dd" d="M33 37c-5.2 0-9.4-2.9-9.4-7.3 0-4.4 3.7-6 7.2-6.8l.6-.1c2.3-.6 3.4-.9 3.4-2 0-1.2-1.3-1.8-2.8-1.8-1.8 0-3.3.7-4.1 2L24 18.9C25.6 16.6 28.1 15 31.8 14.6V11h3.5v3.5c4.5.6 7.6 3.2 7.6 7.4 0 4.1-3.3 5.7-6.9 6.6l-.9.2c-2.2.6-2.4 1.1-2.4 2.1 0 1.1 1.1 1.7 3 1.7 1.9 0 3.3-.9 4.1-2l3.5 2.3C41.1 35.6 38.6 37.4 35 37.8V41h-3.5z"/>
  <path fill="#0a60c5" d="M78 56c0 3.9-3.1 7-7 7H27.2c-1.7 0-3.2 1.3-3.5 3l-1.6 9.1c-.5 2.8-3 4.9-5.9 4.9-3.3 0-6-2.6-6-5.9v-13c0-3.9 3.1-7 7-7h30.6c1.7 0 3.4-.8 4.4-2.2l10.5-13.2c1.9-2.4 5.3-2.7 7.6-.8 2.2 1.8 2.6 5.1.7 7.4L62.5 56z"/>
  <path fill="#0a60c5" fill-opacity=".78" d="M27.7 56v11.3c0 1.4 1.1 2.5 2.5 2.5H71c2.1 0 3.8-1.7 3.8-3.8 0-2.1-1.7-3.8-3.8-3.8H45.3c-1.2 0-2.6-.6-3.5-1.7L34.1 56z"/>
</svg>
